<svg viewBox="0 0 871 871" fill="none" xmlns="http://www.w3.org/2000/svg">
    <rect x="433" y="3.00024" width="6" height="96" rx="3" fill="#575772"/>
    <rect x="868" y="433" width="6" height="96" rx="3" transform="rotate(90 868 433)" fill="#575772"/>
    <rect x="439" y="868" width="6" height="96" rx="3" transform="rotate(180 439 868)" fill="#575772"/>
    <rect x="2.99994" y="439" width="6" height="96" rx="3" transform="rotate(-90 2.99994 439)" fill="#575772"/>
    <rect x="59.5109" y="222.098" width="6" height="80" rx="3" transform="rotate(-60 59.5109 222.098)" fill="#575772"/>
    <rect x="216.902" y="62.5112" width="6" height="80" rx="3" transform="rotate(-30 216.902 62.5112)" fill="#575772"/>
    <rect x="387.02" y="7.72424" width="6" height="40" rx="3" transform="rotate(-6 387.02 7.72424)" fill="#575772"/>
    <rect x="342.57" y="15.1351" width="6" height="40" rx="3" transform="rotate(-12 342.57 15.1351)" fill="#575772"/>
    <rect x="299.139" y="27.1517" width="6" height="40" rx="3" transform="rotate(-18 299.139 27.1517)" fill="#575772"/>
    <rect x="257.202" y="43.6422" width="6" height="40" rx="3" transform="rotate(-24 257.202 43.6422)" fill="#575772"/>
    <rect x="179.627" y="89.2756" width="6" height="40" rx="3" transform="rotate(-36 179.627 89.2756)" fill="#575772"/>
    <rect x="144.838" y="117.918" width="6" height="40" rx="3" transform="rotate(-42 144.838 117.918)" fill="#575772"/>
    <rect x="113.234" y="150.04" width="6" height="40" rx="3" transform="rotate(-48 113.234 150.04)" fill="#575772"/>
    <rect x="85.1607" y="185.29" width="6" height="40" rx="3" transform="rotate(-54 85.1607 185.29)" fill="#575772"/>
    <rect x="40.7949" y="263.597" width="6" height="40" rx="3" transform="rotate(-66 40.7949 263.597)" fill="#575772"/>
    <rect x="24.9883" y="305.797" width="6" height="40" rx="3" transform="rotate(-72 24.9883 305.797)" fill="#575772"/>
    <rect x="13.6795" y="349.418" width="6" height="40" rx="3" transform="rotate(-78 13.6795 349.418)" fill="#575772"/>
    <rect x="6.99213" y="393.981" width="6" height="40" rx="3" transform="rotate(-84 6.99213 393.981)" fill="#575772"/>
    <path d="M400.861 143.912C400.861 140.158 400.563 137.47 399.965 135.848C399.453 134.227 398.259 133.075 396.381 132.392C394.504 131.71 391.389 131.368 387.037 131.368C387.037 129.406 387.251 127.784 387.677 126.504C396.296 125.054 403.549 122.963 409.437 120.232C410.632 120.659 411.4 121.384 411.741 122.408C412.168 123.347 412.381 124.798 412.381 126.76V165.416C412.381 169.427 412.637 172.456 413.149 174.504C413.747 176.467 414.728 177.832 416.093 178.6C417.544 179.283 419.677 179.71 422.493 179.88C422.92 181.246 423.133 183.08 423.133 185.384C417.757 185.128 412.083 185 406.109 185C399.624 185 393.864 185.128 388.829 185.384C388.829 183.08 389.043 181.246 389.469 179.88C392.371 179.71 394.589 179.24 396.125 178.472C397.747 177.704 398.941 176.339 399.709 174.376C400.477 172.328 400.861 169.342 400.861 165.416V143.912ZM487.343 167.848C487.173 169.299 487.087 171.262 487.087 173.736C487.087 177.235 487.386 180.008 487.983 182.056C487.642 182.995 487.087 183.763 486.319 184.36C485.551 184.872 484.783 185.128 484.015 185.128L466.095 185L439.727 185.128C438.703 183.678 438.191 181.459 438.191 178.472L445.103 172.2C449.37 168.446 452.911 165.246 455.727 162.6C458.629 159.87 461.317 157.054 463.791 154.152C466.351 151.166 468.186 148.435 469.295 145.96C470.49 143.486 471.087 140.926 471.087 138.28C471.087 134.44 470.021 131.539 467.887 129.576C465.839 127.614 462.981 126.632 459.311 126.632C455.898 126.632 453.167 127.656 451.119 129.704C449.157 131.752 447.877 135.294 447.279 140.328C444.549 140.328 442.287 139.944 440.495 139.176C440.751 137.128 440.879 134.952 440.879 132.648C440.879 129.662 440.709 127.102 440.367 124.968C447.194 122.067 454.362 120.616 461.871 120.616C468.954 120.616 474.415 121.896 478.255 124.456C482.095 126.931 484.015 130.515 484.015 135.208C484.015 137.939 483.375 140.542 482.095 143.016C480.815 145.491 479.194 147.795 477.231 149.928C475.269 152.062 472.41 154.92 468.655 158.504C462.938 163.966 458.117 168.787 454.191 172.968H471.855C474.245 172.968 475.994 172.84 477.103 172.584C478.213 172.328 479.023 171.816 479.535 171.048C480.047 170.195 480.474 168.872 480.815 167.08C483.205 166.91 485.381 167.166 487.343 167.848Z" fill="#404045"/>
    <path d="M722.884 430.484C728.601 430.655 733.423 432.276 737.348 435.348C741.273 438.335 743.236 442.431 743.236 447.636C743.236 454.463 740.591 459.796 735.3 463.636C730.009 467.476 722.671 469.396 713.284 469.396C708.847 469.396 705.177 468.97 702.276 468.116C699.46 467.263 697.54 466.239 696.516 465.044C696.516 463.082 697.071 461.418 698.18 460.052C699.375 460.906 701.167 461.631 703.556 462.228C706.031 462.826 708.975 463.124 712.388 463.124C717.167 463.124 721.433 461.93 725.188 459.54C729.028 457.151 730.948 453.866 730.948 449.684C730.948 446.612 729.455 444.095 726.468 442.132C723.481 440.17 719.94 439.188 715.844 439.188C714.223 439.188 712.9 439.359 711.876 439.7C711.364 439.103 710.895 438.292 710.468 437.268C710.127 436.244 709.913 435.306 709.828 434.452L716.356 427.668C721.647 422.207 725.273 418.324 727.236 416.02H714.436C711.876 416.02 709.999 416.191 708.804 416.532C707.609 416.788 706.585 417.386 705.732 418.324C704.964 419.263 704.153 420.799 703.3 422.932C701.167 422.932 699.46 422.42 698.18 421.396C699.204 416.532 699.631 410.815 699.46 404.244C704.921 404.415 711.833 404.5 720.196 404.5L734.916 404.372C736.281 404.287 737.903 404.244 739.78 404.244C740.889 405.61 741.359 407.53 741.188 410.004L731.076 421.396C727.151 425.748 724.42 428.778 722.884 430.484Z" fill="#404045"/>
    <path d="M440.619 710.632C447.531 710.632 452.993 712.424 457.003 716.008C461.099 719.592 463.147 724.542 463.147 730.856C463.147 737.939 460.63 743.571 455.595 747.752C450.646 751.848 444.331 753.896 436.651 753.896C428.545 753.896 422.315 751.55 417.963 746.856C413.697 742.163 411.563 735.55 411.563 727.016C411.563 718.227 413.739 710.888 418.091 705C422.443 699.112 427.99 694.803 434.731 692.072C441.473 689.342 448.427 688.062 455.595 688.232C456.534 689.171 457.003 690.835 457.003 693.224C447.19 694.163 439.766 696.467 434.731 700.136C429.782 703.72 426.539 708.371 425.003 714.088C429.782 711.784 434.987 710.632 440.619 710.632ZM438.827 747.496C443.009 747.496 446.123 746.174 448.171 743.528C450.219 740.883 451.243 737.598 451.243 733.672C451.243 728.382 449.537 724.371 446.123 721.64C442.71 718.91 438.827 717.544 434.475 717.544C432.513 717.544 430.55 717.843 428.587 718.44C426.71 718.952 425.131 719.635 423.851 720.488C423.681 721.512 423.595 723.091 423.595 725.224C423.595 733.416 425.046 739.176 427.947 742.504C430.934 745.832 434.561 747.496 438.827 747.496Z" fill="#404045"/>
    <path d="M153.315 405.104C161.422 405.104 167.609 407.451 171.875 412.144C176.227 416.838 178.403 423.451 178.403 431.984C178.403 440.774 176.227 448.112 171.875 454C167.523 459.888 161.977 464.198 155.235 466.928C148.494 469.659 141.539 470.939 134.371 470.768C133.433 469.83 132.963 468.166 132.963 465.776C142.777 464.838 150.158 462.576 155.107 458.992C160.142 455.323 163.427 450.63 164.963 444.912C160.185 447.216 154.979 448.368 149.347 448.368C142.435 448.368 136.931 446.576 132.835 442.992C128.825 439.408 126.819 434.459 126.819 428.144C126.819 421.062 129.294 415.472 134.243 411.376C139.278 407.195 145.635 405.104 153.315 405.104ZM155.491 441.456C157.454 441.456 159.374 441.2 161.251 440.688C163.214 440.091 164.835 439.366 166.115 438.512C166.286 437.488 166.371 435.91 166.371 433.776C166.371 425.584 164.878 419.824 161.891 416.496C158.99 413.168 155.406 411.504 151.139 411.504C146.958 411.504 143.843 412.827 141.795 415.472C139.747 418.118 138.723 421.403 138.723 425.328C138.723 430.619 140.43 434.63 143.843 437.36C147.257 440.091 151.139 441.456 155.491 441.456Z" fill="#404045"/>
    <rect x="648.902" y="59.5112" width="6" height="80" rx="3" transform="rotate(30 648.902 59.5112)" fill="#575772"/>
    <rect x="808.489" y="216.902" width="6" height="80" rx="3" transform="rotate(60 808.489 216.902)" fill="#575772"/>
    <rect x="863.276" y="387.02" width="6" height="40" rx="3" transform="rotate(84 863.276 387.02)" fill="#575772"/>
    <rect x="855.865" y="342.571" width="6" height="40" rx="3" transform="rotate(78 855.865 342.571)" fill="#575772"/>
    <rect x="843.848" y="299.14" width="6" height="40" rx="3" transform="rotate(72 843.848 299.14)" fill="#575772"/>
    <rect x="827.358" y="257.203" width="6" height="40" rx="3" transform="rotate(66 827.358 257.203)" fill="#575772"/>
    <rect x="781.724" y="179.627" width="6" height="40" rx="3" transform="rotate(54 781.724 179.627)" fill="#575772"/>
    <rect x="753.082" y="144.838" width="6" height="40" rx="3" transform="rotate(48 753.082 144.838)" fill="#575772"/>
    <rect x="720.96" y="113.234" width="6" height="40" rx="3" transform="rotate(42 720.96 113.234)" fill="#575772"/>
    <rect x="685.71" y="85.161" width="6" height="40" rx="3" transform="rotate(36 685.71 85.161)" fill="#575772"/>
    <rect x="607.403" y="40.7952" width="6" height="40" rx="3" transform="rotate(24 607.403 40.7952)" fill="#575772"/>
    <rect x="565.203" y="24.9886" width="6" height="40" rx="3" transform="rotate(18 565.203 24.9886)" fill="#575772"/>
    <rect x="521.582" y="13.6798" width="6" height="40" rx="3" transform="rotate(12 521.582 13.6798)" fill="#575772"/>
    <rect x="477.019" y="6.99243" width="6" height="40" rx="3" transform="rotate(6 477.019 6.99243)" fill="#575772"/>
    <rect x="811.489" y="648.902" width="6" height="80" rx="3" transform="rotate(120 811.489 648.902)" fill="#575772"/>
    <rect x="654.098" y="808.489" width="6" height="80" rx="3" transform="rotate(150 654.098 808.489)" fill="#575772"/>
    <rect x="483.98" y="863.276" width="6" height="40" rx="3" transform="rotate(174 483.98 863.276)" fill="#575772"/>
    <rect x="528.43" y="855.865" width="6" height="40" rx="3" transform="rotate(168 528.43 855.865)" fill="#575772"/>
    <rect x="571.861" y="843.849" width="6" height="40" rx="3" transform="rotate(162 571.861 843.849)" fill="#575772"/>
    <rect x="613.798" y="827.358" width="6" height="40" rx="3" transform="rotate(156 613.798 827.358)" fill="#575772"/>
    <rect x="691.373" y="781.725" width="6" height="40" rx="3" transform="rotate(144 691.373 781.725)" fill="#575772"/>
    <rect x="726.162" y="753.082" width="6" height="40" rx="3" transform="rotate(138 726.162 753.082)" fill="#575772"/>
    <rect x="757.766" y="720.96" width="6" height="40" rx="3" transform="rotate(132 757.766 720.96)" fill="#575772"/>
    <rect x="785.839" y="685.71" width="6" height="40" rx="3" transform="rotate(126 785.839 685.71)" fill="#575772"/>
    <rect x="830.205" y="607.403" width="6" height="40" rx="3" transform="rotate(114 830.205 607.403)" fill="#575772"/>
    <rect x="846.012" y="565.203" width="6" height="40" rx="3" transform="rotate(108 846.012 565.203)" fill="#575772"/>
    <rect x="857.32" y="521.583" width="6" height="40" rx="3" transform="rotate(102 857.32 521.583)" fill="#575772"/>
    <rect x="864.008" y="477.019" width="6" height="40" rx="3" transform="rotate(96 864.008 477.019)" fill="#575772"/>
    <rect x="222.098" y="811.489" width="6" height="80" rx="3" transform="rotate(-150 222.098 811.489)" fill="#575772"/>
    <rect x="62.511" y="654.098" width="6" height="80" rx="3" transform="rotate(-120 62.511 654.098)" fill="#575772"/>
    <rect x="7.72397" y="483.981" width="6" height="40" rx="3" transform="rotate(-96 7.72397 483.981)" fill="#575772"/>
    <rect x="15.1349" y="528.43" width="6" height="40" rx="3" transform="rotate(-102 15.1349 528.43)" fill="#575772"/>
    <rect x="27.1515" y="571.861" width="6" height="40" rx="3" transform="rotate(-108 27.1515 571.861)" fill="#575772"/>
    <rect x="43.642" y="613.798" width="6" height="40" rx="3" transform="rotate(-114 43.642 613.798)" fill="#575772"/>
    <rect x="89.2754" y="691.373" width="6" height="40" rx="3" transform="rotate(-126 89.2754 691.373)" fill="#575772"/>
    <rect x="117.918" y="726.162" width="6" height="40" rx="3" transform="rotate(-132 117.918 726.162)" fill="#575772"/>
    <rect x="150.04" y="757.766" width="6" height="40" rx="3" transform="rotate(-138 150.04 757.766)" fill="#575772"/>
    <rect x="185.29" y="785.839" width="6" height="40" rx="3" transform="rotate(-144 185.29 785.839)" fill="#575772"/>
    <rect x="263.597" y="830.205" width="6" height="40" rx="3" transform="rotate(-156 263.597 830.205)" fill="#575772"/>
    <rect x="305.797" y="846.012" width="6" height="40" rx="3" transform="rotate(-162 305.797 846.012)" fill="#575772"/>
    <rect x="349.417" y="857.321" width="6" height="40" rx="3" transform="rotate(-168 349.417 857.321)" fill="#575772"/>
    <rect x="393.981" y="864.008" width="6" height="40" rx="3" transform="rotate(-174 393.981 864.008)" fill="#575772"/>
    </svg>
    