<svg viewBox="0 0 871 871" fill="none" xmlns="http://www.w3.org/2000/svg">
    <circle cx="435.5" cy="435.5" r="432.5" stroke="#575772" stroke-width="5"/>
    <circle cx="436" cy="436" r="4" stroke="#575772" stroke-width="2"/>
    <rect x="433" y="3" width="6" height="96" rx="3" fill="#575772"/>
    <rect x="868" y="433" width="6" height="96" rx="3" transform="rotate(90 868 433)" fill="#575772"/>
    <rect x="439" y="868" width="6" height="96" rx="3" transform="rotate(180 439 868)" fill="#575772"/>
    <rect x="3" y="439" width="6" height="96" rx="3" transform="rotate(-90 3 439)" fill="#575772"/>
    <rect x="479.272" y="5.16296" width="4" height="40" rx="2" transform="rotate(6 479.272 5.16296)" fill="#575772"/>
    <rect x="524.069" y="12.0463" width="4" height="40" rx="2" transform="rotate(12 524.069 12.0463)" fill="#575772"/>
    <rect x="567.902" y="23.5745" width="4" height="40" rx="2" transform="rotate(18 567.902 23.5745)" fill="#575772"/>
    <rect x="610.29" y="39.6213" width="4" height="40" rx="2" transform="rotate(24 610.29 39.6213)" fill="#575772"/>
    <rect x="649.902" y="59.511" width="6" height="80" rx="3" transform="rotate(30 649.902 59.511)" fill="#575772"/>
    <rect x="688.893" y="84.5201" width="4" height="40" rx="2" transform="rotate(36 688.893 84.5201)" fill="#575772"/>
    <rect x="724.247" y="112.88" width="4" height="40" rx="2" transform="rotate(42 724.247 112.88)" fill="#575772"/>
    <rect x="756.443" y="144.78" width="4" height="40" rx="2" transform="rotate(48 756.443 144.78)" fill="#575772"/>
    <rect x="785.129" y="179.871" width="4" height="40" rx="2" transform="rotate(54 785.129 179.871)" fill="#575772"/>
    <rect x="809.489" y="216.902" width="6" height="80" rx="3" transform="rotate(60 809.489 216.902)" fill="#575772"/>
    <rect x="830.752" y="258.056" width="4" height="40" rx="2" transform="rotate(66 830.752 258.056)" fill="#575772"/>
    <rect x="847.189" y="300.294" width="4" height="40" rx="2" transform="rotate(72 847.189 300.294)" fill="#575772"/>
    <rect x="859.122" y="344.018" width="4" height="40" rx="2" transform="rotate(78 859.122 344.018)" fill="#575772"/>
    <rect x="866.419" y="388.75" width="4" height="40" rx="2" transform="rotate(84 866.419 388.75)" fill="#575772"/>
    <rect x="866.837" y="479.272" width="4" height="40" rx="2" transform="rotate(96 866.837 479.272)" fill="#575772"/>
    <rect x="859.954" y="524.069" width="4" height="40" rx="2" transform="rotate(102 859.954 524.069)" fill="#575772"/>
    <rect x="848.426" y="567.902" width="4" height="40" rx="2" transform="rotate(108 848.426 567.902)" fill="#575772"/>
    <rect x="832.379" y="610.29" width="4" height="40" rx="2" transform="rotate(114 832.379 610.29)" fill="#575772"/>
    <rect x="812.489" y="649.902" width="6" height="80" rx="3" transform="rotate(120 812.489 649.902)" fill="#575772"/>
    <rect x="787.48" y="688.893" width="4" height="40" rx="2" transform="rotate(126 787.48 688.893)" fill="#575772"/>
    <rect x="759.12" y="724.247" width="4" height="40" rx="2" transform="rotate(132 759.12 724.247)" fill="#575772"/>
    <rect x="727.22" y="756.443" width="4" height="40" rx="2" transform="rotate(138 727.22 756.443)" fill="#575772"/>
    <rect x="692.129" y="785.129" width="4" height="40" rx="2" transform="rotate(144 692.129 785.129)" fill="#575772"/>
    <rect x="655.098" y="809.489" width="6" height="80" rx="3" transform="rotate(150 655.098 809.489)" fill="#575772"/>
    <rect x="613.944" y="830.752" width="4" height="40" rx="2" transform="rotate(156 613.944 830.752)" fill="#575772"/>
    <rect x="571.707" y="847.189" width="4" height="40" rx="2" transform="rotate(162 571.707 847.189)" fill="#575772"/>
    <rect x="527.982" y="859.122" width="4" height="40" rx="2" transform="rotate(168 527.982 859.122)" fill="#575772"/>
    <rect x="483.25" y="866.419" width="4" height="40" rx="2" transform="rotate(174 483.25 866.419)" fill="#575772"/>
    <rect x="392.728" y="866.837" width="4" height="40" rx="2" transform="rotate(-174 392.728 866.837)" fill="#575772"/>
    <rect x="347.931" y="859.954" width="4" height="40" rx="2" transform="rotate(-168 347.931 859.954)" fill="#575772"/>
    <rect x="304.098" y="848.426" width="4" height="40" rx="2" transform="rotate(-162 304.098 848.426)" fill="#575772"/>
    <rect x="261.71" y="832.379" width="4" height="40" rx="2" transform="rotate(-156 261.71 832.379)" fill="#575772"/>
    <rect x="222.098" y="812.489" width="6" height="80" rx="3" transform="rotate(-150 222.098 812.489)" fill="#575772"/>
    <rect x="183.107" y="787.48" width="4" height="40" rx="2" transform="rotate(-144 183.107 787.48)" fill="#575772"/>
    <rect x="147.753" y="759.12" width="4" height="40" rx="2" transform="rotate(-138 147.753 759.12)" fill="#575772"/>
    <rect x="115.557" y="727.22" width="4" height="40" rx="2" transform="rotate(-132 115.557 727.22)" fill="#575772"/>
    <rect x="86.8713" y="692.129" width="4" height="40" rx="2" transform="rotate(-126 86.8713 692.129)" fill="#575772"/>
    <rect x="62.511" y="655.098" width="6" height="80" rx="3" transform="rotate(-120 62.511 655.098)" fill="#575772"/>
    <rect x="41.2483" y="613.944" width="4" height="40" rx="2" transform="rotate(-114 41.2483 613.944)" fill="#575772"/>
    <rect x="24.8105" y="571.706" width="4" height="40" rx="2" transform="rotate(-108 24.8105 571.706)" fill="#575772"/>
    <rect x="12.8779" y="527.982" width="4" height="40" rx="2" transform="rotate(-102 12.8779 527.982)" fill="#575772"/>
    <rect x="5.58112" y="483.25" width="4" height="40" rx="2" transform="rotate(-96 5.58112 483.25)" fill="#575772"/>
    <rect x="5.16296" y="392.728" width="4" height="40" rx="2" transform="rotate(-84 5.16296 392.728)" fill="#575772"/>
    <rect x="12.0463" y="347.931" width="4" height="40" rx="2" transform="rotate(-78 12.0463 347.931)" fill="#575772"/>
    <rect x="23.5745" y="304.098" width="4" height="40" rx="2" transform="rotate(-72 23.5745 304.098)" fill="#575772"/>
    <rect x="39.6213" y="261.71" width="4" height="40" rx="2" transform="rotate(-66 39.6213 261.71)" fill="#575772"/>
    <rect x="59.511" y="222.098" width="6" height="80" rx="3" transform="rotate(-60 59.511 222.098)" fill="#575772"/>
    <rect x="84.5201" y="183.107" width="4" height="40" rx="2" transform="rotate(-54 84.5201 183.107)" fill="#575772"/>
    <rect x="112.88" y="147.753" width="4" height="40" rx="2" transform="rotate(-48 112.88 147.753)" fill="#575772"/>
    <rect x="144.78" y="115.557" width="4" height="40" rx="2" transform="rotate(-42 144.78 115.557)" fill="#575772"/>
    <rect x="179.871" y="86.8713" width="4" height="40" rx="2" transform="rotate(-36 179.871 86.8713)" fill="#575772"/>
    <rect x="216.902" y="62.511" width="6" height="80" rx="3" transform="rotate(-30 216.902 62.511)" fill="#575772"/>
    <rect x="258.056" y="41.2483" width="4" height="40" rx="2" transform="rotate(-24 258.056 41.2483)" fill="#575772"/>
    <rect x="300.294" y="24.8105" width="4" height="40" rx="2" transform="rotate(-18 300.294 24.8105)" fill="#575772"/>
    <rect x="344.018" y="12.8779" width="4" height="40" rx="2" transform="rotate(-12 344.018 12.8779)" fill="#575772"/>
    <rect x="388.75" y="5.58105" width="4" height="40" rx="2" transform="rotate(-6 388.75 5.58105)" fill="#575772"/>
    <path d="M400.862 143.912C400.862 140.157 400.563 137.469 399.966 135.848C399.454 134.227 398.259 133.075 396.382 132.392C394.504 131.709 391.39 131.368 387.038 131.368C387.038 129.405 387.251 127.784 387.678 126.504C396.296 125.053 403.55 122.963 409.438 120.232C410.632 120.659 411.4 121.384 411.742 122.408C412.168 123.347 412.382 124.797 412.382 126.76V165.416C412.382 169.427 412.638 172.456 413.15 174.504C413.747 176.467 414.728 177.832 416.094 178.6C417.544 179.283 419.678 179.709 422.494 179.88C422.92 181.245 423.134 183.08 423.134 185.384C417.758 185.128 412.083 185 406.11 185C399.624 185 393.864 185.128 388.83 185.384C388.83 183.08 389.043 181.245 389.47 179.88C392.371 179.709 394.59 179.24 396.126 178.472C397.747 177.704 398.942 176.339 399.71 174.376C400.478 172.328 400.862 169.341 400.862 165.416V143.912ZM487.344 167.848C487.173 169.299 487.088 171.261 487.088 173.736C487.088 177.235 487.386 180.008 487.984 182.056C487.642 182.995 487.088 183.763 486.32 184.36C485.552 184.872 484.784 185.128 484.016 185.128L466.096 185L439.728 185.128C438.704 183.677 438.192 181.459 438.192 178.472L445.104 172.2C449.37 168.445 452.912 165.245 455.728 162.6C458.629 159.869 461.317 157.053 463.792 154.152C466.352 151.165 468.186 148.435 469.296 145.96C470.49 143.485 471.088 140.925 471.088 138.28C471.088 134.44 470.021 131.539 467.888 129.576C465.84 127.613 462.981 126.632 459.312 126.632C455.898 126.632 453.168 127.656 451.12 129.704C449.157 131.752 447.877 135.293 447.28 140.328C444.549 140.328 442.288 139.944 440.496 139.176C440.752 137.128 440.88 134.952 440.88 132.648C440.88 129.661 440.709 127.101 440.368 124.968C447.194 122.067 454.362 120.616 461.872 120.616C468.954 120.616 474.416 121.896 478.256 124.456C482.096 126.931 484.016 130.515 484.016 135.208C484.016 137.939 483.376 140.541 482.096 143.016C480.816 145.491 479.194 147.795 477.232 149.928C475.269 152.061 472.41 154.92 468.656 158.504C462.938 163.965 458.117 168.787 454.192 172.968H471.856C474.245 172.968 475.994 172.84 477.104 172.584C478.213 172.328 479.024 171.816 479.536 171.048C480.048 170.195 480.474 168.872 480.816 167.08C483.205 166.909 485.381 167.165 487.344 167.848Z" fill="#404045"/>
    <path d="M722.884 430.484C728.601 430.655 733.423 432.276 737.348 435.348C741.273 438.335 743.236 442.431 743.236 447.636C743.236 454.463 740.591 459.796 735.3 463.636C730.009 467.476 722.671 469.396 713.284 469.396C708.847 469.396 705.177 468.969 702.276 468.116C699.46 467.263 697.54 466.239 696.516 465.044C696.516 463.081 697.071 461.417 698.18 460.052C699.375 460.905 701.167 461.631 703.556 462.228C706.031 462.825 708.975 463.124 712.388 463.124C717.167 463.124 721.433 461.929 725.188 459.54C729.028 457.151 730.948 453.865 730.948 449.684C730.948 446.612 729.455 444.095 726.468 442.132C723.481 440.169 719.94 439.188 715.844 439.188C714.223 439.188 712.9 439.359 711.876 439.7C711.364 439.103 710.895 438.292 710.468 437.268C710.127 436.244 709.913 435.305 709.828 434.452L716.356 427.668C721.647 422.207 725.273 418.324 727.236 416.02H714.436C711.876 416.02 709.999 416.191 708.804 416.532C707.609 416.788 706.585 417.385 705.732 418.324C704.964 419.263 704.153 420.799 703.3 422.932C701.167 422.932 699.46 422.42 698.18 421.396C699.204 416.532 699.631 410.815 699.46 404.244C704.921 404.415 711.833 404.5 720.196 404.5L734.916 404.372C736.281 404.287 737.903 404.244 739.78 404.244C740.889 405.609 741.359 407.529 741.188 410.004L731.076 421.396C727.151 425.748 724.42 428.777 722.884 430.484Z" fill="#404045"/>
    <path d="M440.62 710.632C447.532 710.632 452.993 712.424 457.004 716.008C461.1 719.592 463.148 724.541 463.148 730.856C463.148 737.939 460.63 743.571 455.596 747.752C450.646 751.848 444.332 753.896 436.652 753.896C428.545 753.896 422.316 751.549 417.964 746.856C413.697 742.163 411.564 735.549 411.564 727.016C411.564 718.227 413.74 710.888 418.092 705C422.444 699.112 427.99 694.803 434.732 692.072C441.473 689.341 448.428 688.061 455.596 688.232C456.534 689.171 457.004 690.835 457.004 693.224C447.19 694.163 439.766 696.467 434.732 700.136C429.782 703.72 426.54 708.371 425.003 714.088C429.782 711.784 434.988 710.632 440.62 710.632ZM438.828 747.496C443.009 747.496 446.124 746.173 448.172 743.528C450.22 740.883 451.244 737.597 451.244 733.672C451.244 728.381 449.537 724.371 446.124 721.64C442.71 718.909 438.828 717.544 434.476 717.544C432.513 717.544 430.55 717.843 428.588 718.44C426.71 718.952 425.132 719.635 423.852 720.488C423.681 721.512 423.596 723.091 423.596 725.224C423.596 733.416 425.046 739.176 427.948 742.504C430.934 745.832 434.561 747.496 438.828 747.496Z" fill="#404045"/>
    <path d="M153.316 405.104C161.422 405.104 167.609 407.451 171.876 412.144C176.228 416.837 178.404 423.451 178.404 431.984C178.404 440.773 176.228 448.112 171.876 454C167.524 459.888 161.977 464.197 155.236 466.928C148.494 469.659 141.54 470.939 134.372 470.768C133.433 469.829 132.964 468.165 132.964 465.776C142.777 464.837 150.158 462.576 155.108 458.992C160.142 455.323 163.428 450.629 164.964 444.912C160.185 447.216 154.98 448.368 149.348 448.368C142.436 448.368 136.932 446.576 132.836 442.992C128.825 439.408 126.82 434.459 126.82 428.144C126.82 421.061 129.294 415.472 134.244 411.376C139.278 407.195 145.636 405.104 153.316 405.104ZM155.492 441.456C157.454 441.456 159.374 441.2 161.252 440.688C163.214 440.091 164.836 439.365 166.116 438.512C166.286 437.488 166.372 435.909 166.372 433.776C166.372 425.584 164.878 419.824 161.892 416.496C158.99 413.168 155.406 411.504 151.14 411.504C146.958 411.504 143.844 412.827 141.796 415.472C139.748 418.117 138.724 421.403 138.724 425.328C138.724 430.619 140.43 434.629 143.844 437.36C147.257 440.091 151.14 441.456 155.492 441.456Z" fill="#404045"/>
    </svg>
    